{
    "asset" : {
        "generator" : "Khronos glTF Blender I/O v1.2.75",
        "version" : "2.0"
    },
    "scene" : 0,
    "scenes" : [
        {
            "name" : "Scene",
            "nodes" : [
                8
            ]
        }
    ],
    "nodes" : [
        {
            "name" : "Lamp.001"
        },
        {
            "children" : [
                0
            ],
            "name" : "Lamp",
            "rotation" : [
                0.16907447576522827,
                0.2721706032752991,
                0.7558797597885132,
                0.5709490180015564
            ],
            "scale" : [
                0.9999975562095642,
                0.9999958276748657,
                0.9999960660934448
            ],
            "translation" : [
                4.076250076293945,
                1.0054500102996826,
                5.903860092163086
            ]
        },
        {
            "mesh" : 0,
            "name" : "Sphere_0"
        },
        {
            "children" : [
                2
            ],
            "name" : "Sphere",
            "scale" : [
                2.73117995262146,
                2.73117995262146,
                2.73117995262146
            ],
            "translation" : [
                -1.5459200143814087,
                0,
                -0.0715700015425682
            ]
        },
        {
            "mesh" : 1,
            "name" : "Sphere.001_0"
        },
        {
            "children" : [
                4
            ],
            "name" : "Sphere.001",
            "scale" : [
                2.73117995262146,
                2.73117995262146,
                2.73117995262146
            ],
            "translation" : [
                -1.5459200143814087,
                0,
                -0.0715700015425682
            ]
        },
        {
            "children" : [
                1,
                3,
                5
            ],
            "name" : "Root"
        },
        {
            "children" : [
                6
            ],
            "name" : "RootNode (model correction matrix)"
        },
        {
            "children" : [
                7
            ],
            "name" : "RootNode (gltf orientation matrix)",
            "rotation" : [
                -0.7071067690849304,
                0,
                0,
                0.7071067690849304
            ]
        }
    ],
    "materials" : [
        {
            "doubleSided" : true,
            "emissiveFactor" : [
                1,
                1,
                1
            ],
            "emissiveTexture" : {
                "index" : 0,
                "texCoord" : 0
            },
            "name" : "whale",
            "pbrMetallicRoughness" : {}
        },
        {
            "emissiveFactor" : [
                0.042311400175094604,
                0.07618536800146103,
                0.08437623083591461
            ],
            "name" : "whale_outline",
            "pbrMetallicRoughness" : {}
        }
    ],
    "meshes" : [
        {
            "name" : "Sphere_0",
            "primitives" : [
                {
                    "attributes" : {
                        "POSITION" : 0,
                        "NORMAL" : 1,
                        "TEXCOORD_0" : 2
                    },
                    "indices" : 3,
                    "material" : 0
                }
            ]
        },
        {
            "name" : "Sphere.001_0",
            "primitives" : [
                {
                    "attributes" : {
                        "POSITION" : 4,
                        "NORMAL" : 5
                    },
                    "indices" : 6,
                    "material" : 1
                }
            ]
        }
    ],
    "textures" : [
        {
            "source" : 0
        }
    ],
    "images" : [
        {
            "mimeType" : "image/png",
            "name" : "whale_baseColor",
            "uri" : "whale_baseColor.png"
        }
    ],
    "accessors" : [
        {
            "bufferView" : 0,
            "componentType" : 5126,
            "count" : 2150,
            "max" : [
                2.2818100452423096,
                0.9529899954795837,
                0.7216100096702576
            ],
            "min" : [
                -0.9516199827194214,
                -0.9529899954795837,
                -1.0068000555038452
            ],
            "type" : "VEC3"
        },
        {
            "bufferView" : 1,
            "componentType" : 5126,
            "count" : 2150,
            "type" : "VEC3"
        },
        {
            "bufferView" : 2,
            "componentType" : 5126,
            "count" : 2150,
            "type" : "VEC2"
        },
        {
            "bufferView" : 3,
            "componentType" : 5123,
            "count" : 11808,
            "type" : "SCALAR"
        },
        {
            "bufferView" : 4,
            "componentType" : 5126,
            "count" : 2145,
            "max" : [
                2.3102400302886963,
                0.9730499982833862,
                0.7448899745941162
            ],
            "min" : [
                -0.9986199736595154,
                -0.9730499982833862,
                -1.011680006980896
            ],
            "type" : "VEC3"
        },
        {
            "bufferView" : 5,
            "componentType" : 5126,
            "count" : 2145,
            "type" : "VEC3"
        },
        {
            "bufferView" : 6,
            "componentType" : 5123,
            "count" : 11808,
            "type" : "SCALAR"
        }
    ],
    "bufferViews" : [
        {
            "buffer" : 0,
            "byteLength" : 25800,
            "byteOffset" : 0
        },
        {
            "buffer" : 0,
            "byteLength" : 25800,
            "byteOffset" : 25800
        },
        {
            "buffer" : 0,
            "byteLength" : 17200,
            "byteOffset" : 51600
        },
        {
            "buffer" : 0,
            "byteLength" : 23616,
            "byteOffset" : 68800
        },
        {
            "buffer" : 0,
            "byteLength" : 25740,
            "byteOffset" : 92416
        },
        {
            "buffer" : 0,
            "byteLength" : 25740,
            "byteOffset" : 118156
        },
        {
            "buffer" : 0,
            "byteLength" : 23616,
            "byteOffset" : 143896
        }
    ],
    "buffers" : [
        {
            "byteLength" : 167512,
            "uri" : "no_boxes.bin"
        }
    ]
}
